<svg id="Layer_1" data-name="Layer 1" xmlns="http://www.w3.org/2000/svg" viewBox="0 0 960.64 26.98" width="960.64" height="26.98"><defs><style>.cls-1{fill:#f4f3eb;}</style></defs><title>jagged-edge-gray</title><polygon id="_Path_" data-name="&lt;Path&gt;" class="cls-1" points="954.93 1.74 949.01 0.21 943.09 2.24 937.17 0.07 931.25 3.33 925.35 3.2 919.44 3.7 913.53 3.73 907.62 1.41 901.71 0.38 895.8 1.44 889.9 1.75 883.99 1.31 878.08 3.37 872.17 0.73 866.27 1.85 860.37 2.81 854.47 3.3 848.57 1.34 842.67 4.06 836.78 0.3 830.88 1.02 824.98 3.13 819.08 3.96 813.18 1.87 807.27 3.75 801.37 4.45 795.47 2.63 789.57 0.22 783.66 3.11 777.76 2.02 771.86 3.49 765.96 3.58 760.05 0.36 754.15 3.11 748.25 2.94 742.35 1.94 736.46 2.51 730.55 1.11 724.65 3.06 718.75 0.81 712.85 2.23 706.96 2.07 701.06 0.3 695.17 2.6 689.27 4.67 683.37 0.55 677.47 2.62 671.57 0.6 665.67 3.56 659.78 1.96 653.89 0.06 648 0.08 642.1 3.25 636.21 4.1 630.31 3.7 624.41 1.87 618.51 3.52 612.62 1.44 606.72 1.18 600.83 1.47 594.94 0.76 589.05 1.76 583.17 1.17 577.28 1.22 571.39 3.71 565.5 3.48 559.61 0.86 553.72 2.31 547.82 2.23 541.92 4.65 536.03 0.65 530.13 3.03 524.25 2.7 518.36 1.93 512.48 0.9 506.59 3.51 500.71 1.01 494.83 2.31 488.95 4.27 483.07 0.15 477.19 2.06 471.31 1 465.42 1.52 459.54 3.75 453.65 0.05 447.75 1.24 441.86 2.93 435.96 1.94 430.06 4.39 424.17 0.6 418.28 1.74 412.38 0.83 406.49 1.34 400.6 0.25 394.71 4.01 388.81 4.13 382.92 3.74 377.03 0.24 371.13 1.57 365.24 2.06 359.34 1.92 353.44 3.69 347.55 3.25 341.66 1.33 335.77 1.73 329.88 2.38 323.99 1.21 318.1 0.4 312.21 1.37 306.31 0.47 300.42 1.67 294.53 3.66 288.63 1.52 282.74 0.69 276.84 2.04 270.95 2.85 265.06 1.43 259.16 0.09 253.27 0.21 247.38 0.04 241.49 3.48 235.6 1.44 229.72 4.62 223.83 0.6 217.94 2.65 212.05 0.86 206.16 1.1 200.27 2.45 194.38 2.82 188.49 0.98 182.59 3.69 176.7 1.05 170.8 2.8 164.91 0.68 159.01 1.28 153.12 3.19 147.23 3.29 141.34 1.04 135.46 4.13 129.57 1.49 123.68 1.99 117.79 2.53 111.91 2.14 106.02 3.58 100.13 3.93 94.25 4.32 88.36 0.41 82.47 0.76 76.58 4.63 70.69 0 64.8 1.8 58.91 3.59 53.02 2 47.13 4.5 41.23 0.93 35.34 0.54 29.45 4.13 23.55 0.8 17.66 3.6 11.78 0.54 5.89 2.56 0 0.96 0 26.98 960.64 26.98 960.64 0.96 954.93 1.74"/></svg>
